<?xml version="1.0" encoding="UTF-8"?>
<svg version="1.1" xmlns="http://www.w3.org/2000/svg" width="125" height="112">
<path d="M0 0 C1.8125 1 1.8125 1 3.8125 4 C3.89155064 6.33199388 3.90048769 8.66832622 3.8125 11 C5.08867188 10.96519531 6.36484375 10.93039063 7.6796875 10.89453125 C9.34894521 10.86639769 11.0182171 10.83909707 12.6875 10.8125 C13.95013672 10.77479492 13.95013672 10.77479492 15.23828125 10.73632812 C16.04394531 10.72666016 16.84960938 10.71699219 17.6796875 10.70703125 C18.79512939 10.68346558 18.79512939 10.68346558 19.93310547 10.65942383 C20.86340576 10.82800903 20.86340576 10.82800903 21.8125 11 C22.4725 11.99 23.1325 12.98 23.8125 14 C23.4825 15.65 23.1525 17.3 22.8125 19 C16.5425 19 10.2725 19 3.8125 19 C3.8125 21.97 3.8125 24.94 3.8125 28 C4.52535156 27.9278125 5.23820312 27.855625 5.97265625 27.78125 C17.67153084 26.64757709 17.67153084 26.64757709 21.8125 27 C23.8125 30 23.8125 30 23.4375 32.6875 C23.23125 33.450625 23.025 34.21375 22.8125 35 C19.04949626 36.25433458 15.54039091 36.10695422 11.625 36.0625 C10.87541016 36.05798828 10.12582031 36.05347656 9.35351562 36.04882812 C7.50647617 36.03706354 5.65947787 36.01912865 3.8125 36 C3.8125 38.31 3.8125 40.62 3.8125 43 C5.10027344 42.98839844 6.38804688 42.97679687 7.71484375 42.96484375 C9.39322772 42.9554673 11.07161326 42.94636695 12.75 42.9375 C14.02520508 42.92493164 14.02520508 42.92493164 15.32617188 42.91210938 C16.13505859 42.90888672 16.94394531 42.90566406 17.77734375 42.90234375 C18.5262085 42.89710693 19.27507324 42.89187012 20.04663086 42.88647461 C21.8125 43 21.8125 43 22.8125 44 C22.85342937 46.33297433 22.85491723 48.66705225 22.8125 51 C16.43944402 51.74507544 10.22938675 52.10349817 3.8125 52 C4.39864071 54.93687346 4.77321331 55.95714179 6.875 58.25 C9.62136771 62.1480703 9.26183315 64.28200197 8.8125 69 C7.64236774 72.4203866 6.93939277 72.91540482 3.8125 75 C0.74774457 75.54522803 -2.12274839 75.54842924 -5.1875 75 C-8.1875 72.5625 -8.1875 72.5625 -10.1875 70 C-10.5175 69.67 -10.8475 69.34 -11.1875 69 C-11.79984795 61.89676375 -11.79984795 61.89676375 -9.17431641 58.05175781 C-6.31540987 53.13570451 -6.77541617 48.31108608 -6.97265625 42.7734375 C-7.00860988 40.5859399 -7.04441265 38.39843982 -7.08007812 36.2109375 C-7.16107514 32.78296657 -7.25054105 29.35536086 -7.3449707 25.92773438 C-7.4293572 22.60552119 -7.48343171 19.28379497 -7.53515625 15.9609375 C-7.57351089 14.93688812 -7.61186554 13.91283875 -7.65138245 12.85775757 C-7.74995386 5.75112837 -7.74995386 5.75112837 -4.80249023 1.81494141 C-2.1875 0 -2.1875 0 0 0 Z " fill="#000000" transform="translate(64.1875,10)"/>
<path d="M0 0 C0.99 0.66 1.98 1.32 3 2 C3.1875 4.625 3.1875 4.625 3 7 C-2.15737869 10.12157131 -7.0248067 11.21182369 -13 11 C-15.55078125 10.28125 -15.55078125 10.28125 -18.0625 9.375 C-23.54389566 7.45866955 -26.84714993 8.79449997 -32 11 C-33.32689002 11.35812257 -34.65892763 11.69931113 -36 12 C-36.33 9.69 -36.66 7.38 -37 5 C-29.77048096 1.2513605 -24.55696714 -0.38336502 -16.5 2.0625 C-11.34430607 3.44348945 -7.16597393 2.91452233 -2.1875 0.8125 C-1.465625 0.544375 -0.74375 0.27625 0 0 Z " fill="#000000" transform="translate(49,71)"/>
<path d="M0 0 C1.010625 0.33 2.02125 0.66 3.0625 1 C8.08742571 2.41547203 12.39053499 2.468208 17.4375 1 C24.67247972 -1.0308715 29.48308962 -0.17540551 36.21484375 2.734375 C38 4 38 4 38.81640625 6.015625 C39 8 39 8 38 10 C32.34636872 9.10055866 32.34636872 9.10055866 30.0625 8.4375 C25.68931461 7.50985461 21.83717525 7.75645811 17.5625 9 C10.46301978 10.99283655 5.54255455 10.27127728 -1 7 C-0.67 4.69 -0.34 2.38 0 0 Z " fill="#000000" transform="translate(75,72)"/>
<path d="M0 0 C3.9336657 1.03239885 6.10643077 0.21983155 9.9375 -1.1875 C15.50315049 -1.75887857 20.53131272 -1.02201121 25.89453125 0.47265625 C28.25717913 0.86567798 29.64098104 0.43921359 31.9375 -0.1875 C33.80999157 -0.30285407 35.68650121 -0.3623585 37.5625 -0.375 C39.00496094 -0.39626953 39.00496094 -0.39626953 40.4765625 -0.41796875 C42.9375 -0.1875 42.9375 -0.1875 44.9375 1.8125 C45.0625 4.9375 45.0625 4.9375 44.9375 7.8125 C44.34582031 7.72871094 43.75414063 7.64492187 43.14453125 7.55859375 C38.73204671 6.9899375 35.29879741 6.85514203 30.9375 7.8125 C25.16663773 8.08827572 19.55946456 7.77326067 13.84765625 6.93359375 C11.71413812 6.67827884 11.71413812 6.67827884 8.9375 7.8125 C3.78753083 8.21882784 -0.98820109 7.92844063 -6 6.6875 C-10.82723329 5.59382996 -14.48335482 6.29582637 -19.2578125 7.37109375 C-23.1586084 7.98500731 -26.70839651 7.4579076 -30.6015625 6.97265625 C-33.7771773 6.76598926 -36.18929553 7.49237903 -39.0625 8.8125 C-40.0625 7.8125 -40.0625 7.8125 -40.125 4.75 C-40.104375 3.780625 -40.08375 2.81125 -40.0625 1.8125 C-35.4759199 -0.38905845 -32.25693385 -1.67070315 -27.0625 -1.1875 C-26.4025 -0.8575 -25.7425 -0.5275 -25.0625 -0.1875 C-23.24677058 -0.25001338 -21.43309519 -0.38481203 -19.625 -0.5625 C-18.65691406 -0.65273437 -17.68882813 -0.74296875 -16.69140625 -0.8359375 C-10.43806273 -1.67219443 -6.23930841 -1.84071551 0 0 Z " fill="#000000" transform="translate(61.0625,89.1875)"/>
</svg>
