<?xml version="1.0" encoding="UTF-8"?>
<svg version="1.1" xmlns="http://www.w3.org/2000/svg" width="125" height="112">
<path d="M0 0 C41.25 0 82.5 0 125 0 C125 36.96 125 73.92 125 112 C83.75 112 42.5 112 0 112 C0 75.04 0 38.08 0 0 Z M59.33422852 11.81494141 C55.92396902 16.46824602 56.44199045 20.34461215 56.65234375 25.9609375 C56.66890518 27.02486725 56.68546661 28.088797 56.70252991 29.18496704 C56.75693198 32.58261389 56.84392019 35.97822147 56.9375 39.375 C57.02587498 42.76455386 57.10648289 46.15334598 57.16175842 49.54360962 C57.19639443 51.65094024 57.2499144 53.75806977 57.32493591 55.86434937 C57.43422588 62.27493382 56.5465093 65.67314217 53 71 C52.39491577 76.01355509 52.90299768 78.98536737 56 83 C59.71575751 85.47717167 61.59986738 85.30345742 66 85 C68.81172873 84.45981189 68.81172873 84.45981189 71 83 C73.3277045 79.12049249 73.54529869 75.44028931 73 71 C71.51933804 68.78674571 69.80010226 66.98011249 68 65 C68 64.01 68 63.02 68 62 C69.03640625 62.01160156 70.0728125 62.02320313 71.140625 62.03515625 C72.51041486 62.04453837 73.88020668 62.05363812 75.25 62.0625 C76.27287109 62.07506836 76.27287109 62.07506836 77.31640625 62.08789062 C80.69342554 62.10428392 83.77291639 62.05628768 87 61 C87 58.69 87 56.38 87 54 C82.84373632 52.99073521 78.95634906 52.89760421 74.6875 52.9375 C73.43324219 52.94652344 72.17898437 52.95554688 70.88671875 52.96484375 C69.45779297 52.98224609 69.45779297 52.98224609 68 53 C68.33 50.69 68.66 48.38 69 46 C70.9490625 46.0309375 70.9490625 46.0309375 72.9375 46.0625 C77.69382325 46.07004972 82.28388953 45.59887117 87 45 C87.33 43.02 87.66 41.04 88 39 C84.12328894 36.32710975 80.20732397 36.98124347 75.75 37.375 C75.00492188 37.43171875 74.25984375 37.4884375 73.4921875 37.546875 C71.66064892 37.68776258 69.83018648 37.84251884 68 38 C68 35.03 68 32.06 68 29 C74.27 29 80.54 29 87 29 C87 26.69 87 24.38 87 22 C86.02667739 20.80658248 86.02667739 20.80658248 84.23413086 20.88647461 C83.48526611 20.89171143 82.73640137 20.89694824 81.96484375 20.90234375 C81.15595703 20.90556641 80.34707031 20.90878906 79.51367188 20.91210938 C78.2384668 20.92467773 78.2384668 20.92467773 76.9375 20.9375 C76.08349609 20.94201172 75.22949219 20.94652344 74.34960938 20.95117188 C72.23304337 20.96299627 70.11651315 20.98093231 68 21 C68.02707031 19.89527344 68.05414063 18.79054688 68.08203125 17.65234375 C68.2783083 14.07481463 68.2783083 14.07481463 66.6875 11.5625 C63.85032996 8.93549071 62.35144155 9.7607275 59.33422852 11.81494141 Z M49 71 C47.08162645 71.76073434 45.164693 72.52574342 43.26171875 73.32421875 C38.47743172 74.75372075 33.62968843 73.54322948 29 72 C22.30243318 71.42262355 17.92674505 72.92687294 12 76 C12.33 78.31 12.66 80.62 13 83 C13.639375 82.71125 14.27875 82.4225 14.9375 82.125 C22.11888276 79.48694103 26.50625228 78.48002049 33.7421875 81.31640625 C40.12676876 83.24945421 46.26935847 80.80435649 52 78 C52.25030977 75.58380177 52.25030977 75.58380177 52 73 C51.01 72.34 50.02 71.68 49 71 Z M89 74 C84.209632 74.25662686 79.72818055 73.77194784 75 73 C73.99782936 76.58327753 73.99782936 76.58327753 75 80 C82.20981389 82.595533 87.62953308 82.4429795 94.875 80.3125 C100.10243209 78.89578064 103.23034651 79.06255516 108.16015625 81.23828125 C110.1300907 82.19126252 110.1300907 82.19126252 113 82 C114.22052993 79.19116616 114.22052993 79.19116616 113.5625 77 C110.72493073 73.36791134 106.40790478 72.29699015 101.94140625 71.74609375 C97.2999801 71.61037954 93.41067936 72.71689328 89 74 Z M44.21875 88.4453125 C40.51383208 89.37154198 37.20083961 89.27018891 33.5 88.4375 C28.9069771 87.63372099 24.9932621 88.69619494 21 91 C21 92.98 21 94.96 21 97 C21.99 97.495 21.99 97.495 23 98 C24.00740234 97.53787109 24.00740234 97.53787109 25.03515625 97.06640625 C29.20329861 95.56719299 33.04816231 95.82599258 37.4375 95.9375 C42.80313925 96.04954351 47.69422342 95.90683438 53 95 C54.0725 95.309375 55.145 95.61875 56.25 95.9375 C63.14913048 97.89225364 70.06379344 97.1539614 77.08984375 96.12109375 C79 96 79 96 82 97 C86.96906599 97.30496073 91.87977384 97.07371426 96.8125 96.4375 C100.10797382 96.01680121 102.76480057 96.06074855 106 97 C106.2502157 94.08365871 106.2502157 94.08365871 106 91 C102.88899273 88.92599515 102.21287309 88.745524 98.6875 88.8125 C97.88828125 88.82667969 97.0890625 88.84085937 96.265625 88.85546875 C93.85084943 88.95750559 93.85084943 88.95750559 90.9375 89.625 C87.66798944 90.04238433 85.27877231 89.36805625 82.13671875 88.48828125 C77.00554183 87.31570883 72.10234494 87.55208666 67.125 89.1875 C63.48203949 90.25003015 61.21151097 89.6535267 57.625 88.5 C52.58437174 86.89902376 49.286637 87.14626552 44.21875 88.4453125 Z " fill="#000000" transform="translate(0,0)"/>
</svg>
