<?xml version="1.0" encoding="UTF-8"?>
<svg version="1.1" xmlns="http://www.w3.org/2000/svg" width="87" height="101">
<path d="M0 0 C2.06509947 -0.00975599 4.129223 -0.04085704 6.1940918 -0.07226562 C7.50442383 -0.07742187 8.81475586 -0.08257813 10.16479492 -0.08789062 C11.3572583 -0.09723633 12.54972168 -0.10658203 13.77832031 -0.11621094 C17.40692943 0.28467966 19.25948962 0.82469318 22.00463867 3.24023438 C22.6640625 6.02758789 22.6640625 6.02758789 22.71166992 9.36914062 C22.74067383 10.56861328 22.76967773 11.76808594 22.79956055 13.00390625 C22.80536133 14.25751953 22.81116211 15.51113281 22.81713867 16.80273438 C22.84227539 18.06021484 22.86741211 19.31769531 22.89331055 20.61328125 C22.96628289 24.48915498 23.00463867 28.36370532 23.00463867 32.24023438 C23.62338867 32.50835937 24.24213867 32.77648438 24.87963867 33.05273438 C27.00463867 34.24023437 27.00463867 34.24023437 29.00463867 37.24023438 C29.42918049 39.48838848 29.76113232 41.7545362 30.03979492 44.02539062 C30.16516884 45.01073036 30.16516884 45.01073036 30.29307556 46.01597595 C30.55858652 48.11070415 30.81349872 50.20653838 31.06713867 52.30273438 C31.32582779 54.40227159 31.5867935 56.50146942 31.85191345 58.60020447 C32.09145212 60.50181361 32.32373085 62.40433303 32.55566406 64.30688477 C32.83983846 67.16625191 32.83983846 67.16625191 34.00463867 69.24023438 C35.8272242 69.78251531 35.8272242 69.78251531 37.94213867 69.99023438 C38.65241211 70.08820313 39.36268555 70.18617187 40.09448242 70.28710938 C42.25071947 70.45385149 42.25071947 70.45385149 44.00463867 68.24023438 C45.26548662 59.91744469 43.0891212 51.52842265 41.23364258 43.45263672 C40.75756952 41.3780064 40.29962337 39.30001477 39.84448242 37.22070312 C36.81923766 20.29206647 36.81923766 20.29206647 28.00463867 6.24023438 C27.34463867 5.91023437 26.68463867 5.58023437 26.00463867 5.24023438 C26.33463867 3.59023437 26.66463867 1.94023437 27.00463867 0.24023438 C33.81090801 2.76827727 37.87402234 5.83096567 42.19213867 11.67773438 C42.84859375 12.5372168 42.84859375 12.5372168 43.51831055 13.4140625 C47.72345916 18.993107 47.72345916 18.993107 49.00463867 22.24023438 C48.69213867 24.36523438 48.69213867 24.36523438 48.00463867 27.24023438 C46.69571908 34.84731394 47.41658298 41.40857151 48.94213867 48.92773438 C52.36264094 66.32375418 52.36264094 66.32375418 49.00463867 72.24023438 C46.68831178 75.0048826 44.9974252 76.10587229 41.40698242 76.59179688 C36.08109013 76.7494949 32.29223367 76.72066555 28.00463867 73.24023438 C26.93041992 70.59570313 26.93041992 70.59570313 26.31713867 67.42773438 C26.10702148 66.41066406 25.8969043 65.39359375 25.68041992 64.34570312 C24.68954602 58.32600099 23.86740915 52.27962772 23.00463867 46.24023438 C23.00463867 57.13023438 23.00463867 68.02023438 23.00463867 79.24023438 C23.99463867 79.57023437 24.98463867 79.90023437 26.00463867 80.24023438 C26.00463867 81.89023438 26.00463867 83.54023437 26.00463867 85.24023438 C16.27482032 86.00134808 6.60682917 86.42672012 -3.15185547 86.42553711 C-5.22032811 86.42777491 -7.28830683 86.44618347 -9.35668945 86.46484375 C-11.33378906 86.46774414 -11.33378906 86.46774414 -13.35083008 86.47070312 C-14.53314209 86.47481201 -15.7154541 86.4789209 -16.93359375 86.4831543 C-19.86828262 86.25031677 -21.52438849 85.77702645 -23.99536133 84.24023438 C-23.99536133 82.92023438 -23.99536133 81.60023437 -23.99536133 80.24023438 C-22.51036133 79.25023438 -22.51036133 79.25023438 -20.99536133 78.24023438 C-20.568254 75.06592784 -20.568254 75.06592784 -20.68652344 71.26782227 C-20.6906852 70.19196617 -20.6906852 70.19196617 -20.69493103 69.09437561 C-20.70724426 66.71690755 -20.74033397 64.34016272 -20.77270508 61.96289062 C-20.78337732 60.31384723 -20.79243519 58.66479266 -20.79994202 57.01573181 C-20.82276491 52.66838615 -20.86181864 48.32135858 -20.90594482 43.97418213 C-20.97602242 37.01902061 -21.03137033 30.06387301 -21.06830025 23.10845757 C-21.08502966 20.67589756 -21.11458892 18.24371677 -21.14500427 15.81129456 C-21.15546456 14.32154698 -21.16542506 12.83179579 -21.17480469 11.34204102 C-21.18829453 10.04013321 -21.20178436 8.7382254 -21.21568298 7.39686584 C-20.99536133 4.24023438 -20.99536133 4.24023438 -18.99536133 1.24023438 C-12.80830388 -0.31228735 -6.3399408 0.01813787 0 0 Z M-13.99536133 7.24023438 C-13.99536133 15.16023438 -13.99536133 23.08023437 -13.99536133 31.24023438 C-4.42536133 31.24023438 5.14463867 31.24023438 15.00463867 31.24023438 C15.69096588 26.43594393 16.14093469 22.32530067 16.12963867 17.55273438 C16.1322168 16.45574219 16.13479492 15.35875 16.13745117 14.22851562 C16.09504062 11.03738122 16.09504062 11.03738122 15.00463867 7.24023438 C5.43463867 7.24023438 -4.13536133 7.24023438 -13.99536133 7.24023438 Z M22.00463867 41.24023438 C23.00463867 43.24023438 23.00463867 43.24023438 23.00463867 43.24023438 Z " fill="#FFFFFF" transform="translate(28.995361328125,6.759765625)"/>
</svg>
