<?xml version="1.0" encoding="UTF-8"?>
<svg version="1.1" xmlns="http://www.w3.org/2000/svg" width="87" height="101">
<path d="M0 0 C28.71 0 57.42 0 87 0 C87 33.33 87 66.66 87 101 C58.29 101 29.58 101 0 101 C0 67.67 0 34.34 0 0 Z M9 9 C7.53146 11.93708001 7.86980451 14.89343705 7.88647461 18.11181641 C7.88632858 18.84362625 7.88618256 19.5754361 7.8860321 20.329422 C7.88672997 22.75349876 7.89451646 25.17749912 7.90234375 27.6015625 C7.90420838 29.28022215 7.90563207 30.95888234 7.90663147 32.63754272 C7.91045312 37.05987038 7.92028041 41.48216528 7.93133545 45.90447998 C7.94155714 50.41548215 7.94613072 54.92648959 7.95117188 59.4375 C7.96190298 68.29168107 7.97897519 77.14583781 8 86 C6.515 86.495 6.515 86.495 5 87 C5.33 88.98 5.66 90.96 6 93 C12.81761894 93.0252689 19.63522589 93.04283244 26.45288086 93.05493164 C28.77417451 93.05997333 31.09546497 93.06680651 33.41674805 93.07543945 C36.74528795 93.08751225 40.07378602 93.09322979 43.40234375 93.09765625 C44.96951393 93.10539818 44.96951393 93.10539818 46.56834412 93.11329651 C48.00972496 93.11340981 48.00972496 93.11340981 49.48022461 93.11352539 C50.33071884 93.115746 51.18121307 93.11796661 52.05747986 93.12025452 C54.00588545 93.21480284 54.00588545 93.21480284 55 92 C55.04063832 90.33382885 55.042721 88.66611905 55 87 C54.01 86.67 53.02 86.34 52 86 C52.33 77.42 52.66 68.84 53 60 C54.25 68.75 54.25 68.75 54.61425781 71.48730469 C55.34158389 76.17614746 55.98546721 79.04356113 60 82 C63.96523014 83.98261507 68.68927721 83.55250109 73 83 C75.73377373 81.63311313 76.92288457 80.35042009 79 78 C81.96428293 69.10715122 79.13234252 59.28347694 77.33398438 50.390625 C76.02030032 43.47649841 75.89228366 38.15995647 77.71875 31.30078125 C78.37589014 25.92500985 73.36306267 20.7798921 70.25 16.71484375 C66.88229716 12.69314504 63.61716172 9.51845184 59 7 C58.01 7 57.02 7 56 7 C55.67 8.65 55.34 10.3 55 12 C56.11375 12.7115625 56.11375 12.7115625 57.25 13.4375 C63.90358908 19.63743528 65.26734802 29.27896264 67.18261719 37.8371582 C67.62236218 39.80072153 68.07557976 41.76078096 68.53125 43.72070312 C73.38630078 64.95617967 73.38630078 64.95617967 73 75 C70.24075815 76.80411967 69.11027897 77.0127245 65.75 76.625 C64.8425 76.41875 63.935 76.2125 63 76 C61.87275115 70.81564536 60.90728722 65.65813929 60.2890625 60.38671875 C60.17820313 59.44892578 60.06734375 58.51113281 59.953125 57.54492188 C59.73226011 55.62155675 59.52150572 53.69700664 59.3203125 51.77148438 C58.674977 46.47313325 58.15187791 42.7591327 54 39 C53.34 39 52.68 39 52 39 C52.01160156 37.92363281 52.02320313 36.84726562 52.03515625 35.73828125 C52.10115525 26.76138592 51.87091703 17.94245167 51 9 C46.53942112 7.29079036 42.82955136 6.74343292 38.0625 6.734375 C36.75539063 6.73179687 35.44828125 6.72921875 34.1015625 6.7265625 C33.42770508 6.73075195 32.75384766 6.73494141 32.05957031 6.73925781 C30.00555897 6.74997101 27.95242204 6.73933237 25.8984375 6.7265625 C24.59132813 6.72914063 23.28421875 6.73171875 21.9375 6.734375 C20.75027344 6.73663086 19.56304687 6.73888672 18.33984375 6.74121094 C14.89457319 7.00816904 12.17974324 7.65935788 9 9 Z " fill="#000000" transform="translate(0,0)"/>
<path d="M0 0 C9.57 0 19.14 0 29 0 C29.61303932 5.51735388 30.13799618 10.47260481 30.125 15.9375 C30.12886719 17.59072266 30.12886719 17.59072266 30.1328125 19.27734375 C30 22 30 22 29 24 C19.43 24 9.86 24 0 24 C0 16.08 0 8.16 0 0 Z " fill="#000000" transform="translate(15,14)"/>
</svg>
