<?xml version="1.0" encoding="UTF-8"?>
<svg version="1.1" xmlns="http://www.w3.org/2000/svg" width="133" height="66">
<path d="M0 0 C43.89 0 87.78 0 133 0 C133 21.78 133 43.56 133 66 C89.11 66 45.22 66 0 66 C0 44.22 0 22.44 0 0 Z M92 1 C93 3 93 3 93 3 Z M12 10 C9.62080926 10.8961672 9.62080926 10.8961672 8.9296875 14.16796875 C8.56962022 15.50555203 8.2184373 16.84555056 7.875 18.1875 C7.69324219 18.84814453 7.51148438 19.50878906 7.32421875 20.18945312 C6.26698109 24.21570029 5.8061016 27.84411097 6 32 C8.89461219 32.9829057 11.79058079 33.96143701 14.6875 34.9375 C15.50412109 35.21529297 16.32074219 35.49308594 17.16210938 35.77929688 C21.0845344 37.09735873 24.90130514 38.34053586 29 39 C28.91621094 40.21558594 28.83242188 41.43117188 28.74609375 42.68359375 C28.64295297 44.26821121 28.54010339 45.85284765 28.4375 47.4375 C28.38142578 48.23994141 28.32535156 49.04238281 28.26757812 49.86914062 C28.1383705 51.91062111 28.0648727 53.95546369 28 56 C29.04310705 57.26650985 29.04310705 57.26650985 31.36012268 57.12025452 C32.92898476 57.1169236 32.92898476 57.1169236 34.52954102 57.11352539 C36.30126427 57.11341209 36.30126427 57.11341209 38.10877991 57.11329651 C40.03686745 57.10555458 40.03686745 57.10555458 42.00390625 57.09765625 C43.31205795 57.0962413 44.62020966 57.09482635 45.96800232 57.09336853 C49.45162859 57.0895441 52.93521339 57.07971446 56.41882324 57.06866455 C59.97126708 57.05844882 63.52371759 57.05387056 67.07617188 57.04882812 C74.05079832 57.03809212 81.02539717 57.0210166 88 57 C88.66 55.35 89.32 53.7 90 52 C90.66 52 91.32 52 92 52 C93.60514879 49.94880797 95.09222721 47.89508815 96.5625 45.75 C97.46563688 44.46969291 98.36929299 43.18975196 99.2734375 41.91015625 C101.00943292 39.43252886 102.71850877 36.93899564 104.4140625 34.43359375 C105.16429688 33.36238281 105.91453125 32.29117188 106.6875 31.1875 C107.68330078 29.72376953 107.68330078 29.72376953 108.69921875 28.23046875 C111.72495495 25.29719987 113.85312633 25.1423412 118 25 C120.9375 25.9375 120.9375 25.9375 123 27 C123 26.34 123 25.68 123 25 C123.99 24.67 124.98 24.34 126 24 C126.33 23.01 126.66 22.02 127 21 C126.00368079 19.95522758 124.97643691 18.93990286 123.9375 17.9375 C123.36902344 17.36902344 122.80054687 16.80054688 122.21484375 16.21484375 C118.39480243 14.11954772 114.92999737 15.45635456 110.89819336 16.59204102 C108.58729944 17.30023876 106.29383531 18.05093543 104 18.8125 C97.90029681 20.77928235 91.79975194 22.71839293 85.625 24.4375 C84.46226563 24.76621094 83.29953125 25.09492188 82.1015625 25.43359375 C78.18488638 26.14885576 75.57028227 25.86174027 72.078125 23.9453125 C69.2315095 22.65042349 66.85892581 22.80741466 63.75 22.875 C62.13351563 22.90207031 62.13351563 22.90207031 60.484375 22.9296875 C59.66453125 22.95289063 58.8446875 22.97609375 58 23 C57.505 20.525 57.505 20.525 57 18 C58.98 18 60.96 18 63 18 C63 15.69 63 13.38 63 11 C56.07 11 49.14 11 42 11 C42 12.98 42 14.96 42 17 C43.83883881 19.28728734 43.83883881 19.28728734 46.625 19.125 C47.40875 19.08375 48.1925 19.0425 49 19 C49 20.65 49 22.3 49 24 C47.9275 23.835 46.855 23.67 45.75 23.5 C41.96971248 22.91189085 41.96971248 22.91189085 38 23 C37.76659912 22.38342529 37.53319824 21.76685059 37.29272461 21.1315918 C35.62966107 18.38934292 34.30487858 17.97658875 31.31640625 16.89453125 C30.38892578 16.55099609 29.46144531 16.20746094 28.50585938 15.85351562 C27.53455078 15.50998047 26.56324219 15.16644531 25.5625 14.8125 C24.59505859 14.45736328 23.62761719 14.10222656 22.63085938 13.73632812 C19.10113298 12.44544276 15.56553913 11.18851304 12 10 Z M121 32 C117.63331914 35.36668086 117.1598599 40.20157613 116.75 44.8125 C116.86468213 47.29171252 116.86468213 47.29171252 119 50 C121.5 50.41666667 121.5 50.41666667 124 50 C126.42597831 47.57402169 126.60651873 46.36645089 127 43 C126.70275894 40.31563332 126.70275894 40.31563332 126.0625 37.6875 C125.86785156 36.80449219 125.67320313 35.92148437 125.47265625 35.01171875 C125.31667969 34.34785156 125.16070312 33.68398438 125 33 C123.10820797 32.3185177 123.10820797 32.3185177 121 32 Z " fill="#000000" transform="translate(0,0)"/>
<path d="M0 0 C1.60433809 0.47859241 3.20846416 0.95789558 4.8125 1.4375 C6.15248047 1.83775391 6.15248047 1.83775391 7.51953125 2.24609375 C9.35473055 2.80387873 11.18033726 3.39344575 13 4 C13 6.31 13 8.62 13 11 C9.48294042 10.34728444 6.10674923 9.48606976 2.6875 8.4375 C1.80449219 8.16808594 0.92148437 7.89867187 0.01171875 7.62109375 C-0.65214844 7.41613281 -1.31601563 7.21117187 -2 7 C-1.125 1.125 -1.125 1.125 0 0 Z " fill="#000000" transform="translate(16,20)"/>
<path d="M0 0 C-0.56847656 0.61746094 -1.13695312 1.23492188 -1.72265625 1.87109375 C-2.88087891 3.14146484 -2.88087891 3.14146484 -4.0625 4.4375 C-5.2513774 5.73611992 -6.4402826 7.03471445 -7.6295166 8.33300781 C-9.08804099 10.03650568 -9.08804099 10.03650568 -10.41247559 12.23730469 C-14.5562295 18.52345324 -14.5562295 18.52345324 -18.40098572 19.79249573 C-21.2231465 20.03976089 -23.91640908 20.01440574 -26.74609375 19.87890625 C-27.75720718 19.86617172 -28.76832062 19.85343719 -29.81007385 19.84031677 C-33.02171488 19.79015793 -36.22758463 19.67730315 -39.4375 19.5625 C-41.62166284 19.51733052 -43.80591478 19.47627026 -45.99023438 19.43945312 C-51.32902738 19.34052289 -56.66353739 19.18537086 -62 19 C-62 13.39 -62 7.78 -62 2 C-34.06748466 0.07361963 -34.06748466 0.07361963 -27 4 C-26.505 4.495 -26.505 4.495 -26 5 C-19.21722817 4.73400895 -13.41762598 2.42923647 -7.171875 -0.0390625 C-4.11638697 -0.96473991 -2.89102475 -1.18789631 0 0 Z " fill="#000000" transform="translate(99,30)"/>
</svg>
