<?xml version="1.0" encoding="UTF-8"?>
<svg version="1.1" xmlns="http://www.w3.org/2000/svg" width="133" height="66">
<path d="M0 0 C5.66741235 1.80700104 11.19654219 3.82791461 16.6953125 6.09765625 C19.17709662 7.11335213 19.17709662 7.11335213 22.5625 8 C23.7690625 8.495 23.7690625 8.495 25 9 C25.33 10.32 25.66 11.64 26 13 C29.63 13 33.26 13 37 13 C37.33 11.68 37.66 10.36 38 9 C37.21625 9.04125 36.4325 9.0825 35.625 9.125 C33 9 33 9 31 7 C30.875 3.875 30.875 3.875 31 1 C45.78132118 -0.33257403 45.78132118 -0.33257403 52 1 C52 3.31 52 5.62 52 8 C49.50907189 9.24546405 48.58919267 8.7767578 46 8 C46.495 10.475 46.495 10.475 47 13 C48.33804688 12.94779297 48.33804688 12.94779297 49.703125 12.89453125 C50.87359375 12.86746094 52.0440625 12.84039062 53.25 12.8125 C54.41015625 12.77769531 55.5703125 12.74289063 56.765625 12.70703125 C60 13 60 13 61.984375 14.57421875 C63.99877227 16.30390639 63.99877227 16.30390639 67.01171875 15.8984375 C72.36568974 14.84617902 77.59136375 13.18972443 82.8125 11.625 C83.84181641 11.32078125 84.87113281 11.0165625 85.93164062 10.703125 C86.95064453 10.40148438 87.96964844 10.09984375 89.01953125 9.7890625 C90.02193848 9.49290039 91.0243457 9.19673828 92.05712891 8.89160156 C93.98344766 8.30798483 95.90298028 7.70135686 97.81396484 7.06933594 C98.68359863 6.78606445 99.55323242 6.50279297 100.44921875 6.2109375 C101.20936279 5.9536084 101.96950684 5.6962793 102.75268555 5.43115234 C107.05681721 4.60539498 109.65287865 5.78386784 113.3125 8.0625 C114.199375 8.701875 115.08625 9.34125 116 10 C115.34 11.65 114.68 13.3 114 15 C113.34 15 112.68 15 112 15 C112 15.66 112 16.32 112 17 C111.319375 16.649375 110.63875 16.29875 109.9375 15.9375 C106.14018631 14.72559138 103.86290393 15.04900186 100 16 C97.57165309 18.20379047 97.57165309 18.20379047 95.6875 21.1875 C94.93726562 22.25871094 94.18703125 23.32992187 93.4140625 24.43359375 C93.02508789 25.00835449 92.63611328 25.58311523 92.23535156 26.17529297 C90.48886108 28.75499057 88.70126724 31.30466774 86.90356445 33.84887695 C86.01871562 35.1032585 85.14203491 36.36344718 84.27416992 37.62963867 C83.23208503 39.12209297 82.12178652 40.56648831 81 42 C80.34 42 79.68 42 79 42 C78.34 43.65 77.68 45.3 77 47 C57.53 47 38.06 47 18 47 C16.39329316 43.78658631 17.17489145 40.37041032 17.4375 36.875 C17.51581055 35.74384766 17.51581055 35.74384766 17.59570312 34.58984375 C17.72545004 32.7262063 17.86207488 30.86305004 18 29 C17.28585938 28.87496094 16.57171875 28.74992187 15.8359375 28.62109375 C12.9650657 27.9923491 10.37068978 27.10491804 7.625 26.0625 C3.44887995 24.50846344 -0.69605208 23.14771945 -5 22 C-3.8587963 3.8587963 -3.8587963 3.8587963 0 0 Z M5 10 C4.34 11.98 3.68 13.96 3 16 C4.93232821 16.86580287 6.87107194 17.71729941 8.8125 18.5625 C10.43091797 19.27599609 10.43091797 19.27599609 12.08203125 20.00390625 C15.01127243 21.33277223 15.01127243 21.33277223 18 20 C18 18.02 18 16.04 18 14 C16.2097939 13.32942113 14.41778511 12.6636531 12.625 12 C11.62726562 11.62875 10.62953125 11.2575 9.6015625 10.875 C7.14151939 9.89373723 7.14151939 9.89373723 5 10 Z M79.75 20.8125 C78.63109375 21.16957031 77.5121875 21.52664062 76.359375 21.89453125 C74.14913653 22.62185391 71.94319958 23.36240398 69.7421875 24.1171875 C66.89580972 25.03354274 64.96131401 25.38964658 62 25 C61.39542969 24.51273438 60.79085937 24.02546875 60.16796875 23.5234375 C52.06182992 17.82723183 35.34692305 20.91629878 26 22 C26 27.61 26 33.22 26 39 C32.31232949 39.39905311 38.61717421 39.68731492 44.93920898 39.87890625 C47.08276293 39.95881627 49.22545978 40.0676081 51.3659668 40.20703125 C63.34723194 41.29915176 63.34723194 41.29915176 74.30621338 37.41015625 C78.66197242 33.28503151 82.37317216 28.41143344 85 23 C85 22.34 85 21.68 85 21 C85.99 20.67 86.98 20.34 88 20 C84.93130829 18.46565415 82.94983114 19.7787646 79.75 20.8125 Z " fill="#000000" transform="translate(11,10)"/>
<path d="M0 0 C1.65 0.33 3.3 0.66 5 1 C5.39278091 2.72521463 5.76349151 4.45546248 6.125 6.1875 C6.33382812 7.15042969 6.54265625 8.11335938 6.7578125 9.10546875 C7.03073754 12.36736312 6.46873022 14.10875834 5 17 C4 18 4 18 1.5625 18.25 C0.716875 18.1675 -0.12875 18.085 -1 18 C-3.62961522 14.05557717 -2.90125177 12.58136315 -2 8 C-1.37663421 5.3190584 -0.70066138 2.66251323 0 0 Z " fill="#000000" transform="translate(120,32)"/>
</svg>
